<?xml version="1.0" standalone="no"?>
<!DOCTYPE svg PUBLIC "-//W3C//DTD SVG 20010904//EN"
 "http://www.w3.org/TR/2001/REC-SVG-20010904/DTD/svg10.dtd">
<svg version="1.0" xmlns="http://www.w3.org/2000/svg"
 width="512.000000pt" height="512.000000pt" viewBox="0 0 512.000000 512.000000"
 preserveAspectRatio="xMidYMid meet">
<metadata>
Created by potrace 1.16, written by Peter Selinger 2001-2019
</metadata>
<g transform="translate(0.000000,512.000000) scale(0.100000,-0.100000)"
fill="#000000" stroke="none">
<path d="M2190 5104 c-611 -74 -1116 -302 -1514 -685 -198 -190 -345 -389
-461 -624 -153 -309 -215 -575 -215 -922 0 -204 16 -328 64 -505 131 -477 457
-904 926 -1213 75 -49 100 -71 96 -83 -66 -222 -178 -628 -191 -691 -11 -54
-16 -115 -13 -172 3 -97 13 -118 82 -173 36 -30 42 -31 129 -31 85 0 98 3 167
36 104 50 198 116 507 357 413 321 416 323 432 317 49 -15 377 -24 524 -15
423 27 747 111 1112 290 397 193 726 476 954 820 170 257 272 524 317 830 23
160 16 480 -15 631 -86 428 -285 785 -617 1110 -407 397 -963 652 -1574 723
-168 20 -547 20 -710 0z m685 -330 c463 -55 901 -236 1239 -513 39 -32 121
-110 181 -172 271 -282 433 -607 486 -976 7 -50 9 -152 7 -255 -5 -196 -32
-338 -95 -508 -257 -691 -954 -1193 -1813 -1306 -159 -21 -424 -23 -608 -5
l-143 15 -62 -31 c-72 -36 -175 -109 -457 -323 -246 -188 -350 -264 -354 -259
-2 2 41 161 95 353 54 193 99 364 99 380 0 17 -9 50 -19 72 -17 36 -35 51
-148 119 -516 309 -823 713 -925 1218 -30 148 -33 462 -5 599 131 649 588
1176 1246 1438 380 151 838 206 1276 154z"/>
<path d="M665 3451 c-45 -27 -62 -51 -76 -101 -16 -61 2 -124 46 -166 39 -37
69 -44 181 -44 l84 0 0 -468 c0 -465 0 -468 23 -512 31 -61 74 -82 154 -78 72
4 108 26 135 79 16 31 18 76 18 505 l0 472 109 4 c118 4 141 12 185 71 30 41
33 122 4 176 -42 81 -40 81 -463 81 -343 0 -372 -1 -400 -19z"/>
<path d="M1954 3456 c-17 -8 -40 -25 -51 -40 -12 -14 -120 -275 -242 -579
-240 -599 -244 -614 -201 -685 41 -67 138 -98 204 -67 49 24 88 83 137 210
l41 105 185 -2 185 -3 42 -105 c58 -144 72 -168 109 -190 46 -29 133 -27 178
3 48 32 79 83 79 129 0 48 -438 1149 -472 1186 -46 49 -129 66 -194 38z"/>
<path d="M2800 3452 c-19 -9 -45 -32 -57 -51 l-23 -34 0 -591 c0 -572 1 -592
20 -624 11 -18 34 -41 52 -52 31 -19 51 -20 303 -20 253 0 272 1 303 20 71 43
92 169 42 241 -38 53 -63 59 -240 59 l-160 0 0 483 c0 461 -1 483 -20 514 -39
65 -147 92 -220 55z"/>
<path d="M3651 3448 c-85 -44 -81 -14 -81 -673 0 -532 1 -583 18 -614 27 -53
63 -75 135 -79 80 -4 123 17 155 78 20 41 22 58 22 210 l1 165 40 -45 c22 -25
103 -119 179 -210 76 -91 152 -173 168 -182 37 -22 122 -24 161 -3 69 35 106
125 82 197 -6 18 -103 140 -216 272 l-205 240 209 210 c178 180 210 217 216
249 10 54 0 104 -30 143 -39 51 -77 67 -147 62 l-59 -4 -199 -199 -199 -198
-3 151 c-3 134 -5 154 -24 178 -54 73 -143 94 -223 52z"/>
</g>
</svg>
